<svg id="SvgjsSvg1011" width="288" height="288" xmlns="http://www.w3.org/2000/svg" version="1.1" xmlns:xlink="http://www.w3.org/1999/xlink" xmlns:svgjs="http://svgjs.com/svgjs"><defs id="SvgjsDefs1012"></defs><g id="SvgjsG1013"><svg xmlns="http://www.w3.org/2000/svg" viewBox="0 0 36 36" width="288" height="288"><path style="text-indent:0;text-align:start;line-height:normal;text-transform:none;block-progression:tb;marker:none;-inkscape-font-specification:Sans" d="M18 0C8.065 0 0 8.065 0 18s8.065 18 18 18 18-8.065 18-18S27.935 0 18 0zm0 1c9.41 0 17.031 7.59 17.031 17S27.41 35.031 18 35.031C8.59 35.031.969 27.41.969 18 .969 8.59 8.59 1 18 1zM8.844 12.594a.5.5 0 0 0-.438.531V24.5a.5.5 0 0 0 .5.5h18.188a.5.5 0 0 0 .5-.5V13.187a.5.5 0 0 0-.5-.593H18l-9 .031a.5.5 0 0 0-.094-.031.5.5 0 0 0-.062 0zm9.156 1h7.375L18 18.219l-7.344-4.594L18 13.594zM9.406 14l8.344 5.219a.5.5 0 0 0 .531 0L26.594 14v10H9.406V14z" color="#000" font-family="Sans" font-weight="400" overflow="visible" fill="#ffffff" class="color000 svgShape"></path></svg></g></svg>